<?xml version="1.0" encoding="UTF-8"?>
<svg id="Layer_1" data-name="Layer 1" xmlns="http://www.w3.org/2000/svg" viewBox="0 0 404.07 104.76">
  <defs>
    <style>
      .cls-1 {
        opacity: .54;
      }

      .cls-2 {
        fill: #231f20;
      }

      .cls-3 {
        fill: #ef89a6;
      }
    </style>
  </defs>
  <g>
    <g class="cls-1">
      <circle class="cls-3" cx="37.08" cy="87.47" r="17.3"/>
    </g>
    <g class="cls-1">
      <circle class="cls-3" cx="17.3" cy="51.89" r="17.3"/>
    </g>
    <g class="cls-1">
      <circle class="cls-3" cx="37.08" cy="17.3" r="17.3"/>
    </g>
    <g class="cls-1">
      <circle class="cls-3" cx="77.69" cy="17.3" r="17.3"/>
    </g>
    <g class="cls-1">
      <circle class="cls-3" cx="98" cy="51.89" r="17.3"/>
    </g>
    <g class="cls-1">
      <circle class="cls-3" cx="77.69" cy="87.47" r="17.3"/>
    </g>
  </g>
  <g>
    <path class="cls-2" d="M163.28,25.18c-8.81,0-15.63,2.76-20.47,8.28-4.84,5.52-7.27,13.33-7.27,23.44s2.42,17.88,7.27,23.42c4.84,5.54,11.67,8.3,20.47,8.3s15.63-2.77,20.47-8.3c4.84-5.54,7.27-13.34,7.27-23.42s-2.42-17.93-7.27-23.44c-4.84-5.52-11.67-8.28-20.47-8.28ZM171.99,69.39c-2.04,2.94-4.94,4.41-8.71,4.41s-6.62-1.47-8.68-4.41c-2.06-2.94-3.09-7.1-3.09-12.49s1.03-9.59,3.09-12.51c2.06-2.92,4.95-4.38,8.68-4.38s6.67,1.46,8.71,4.38c2.04,2.92,3.06,7.09,3.06,12.51s-1.02,9.54-3.06,12.49Z"/>
    <path class="cls-2" d="M238.09,25.18c-4.54,0-7.92,1.01-10.15,3.03-2.23,2.02-3.63,5.09-4.21,9.2h-1.74l-1.43-11.07h-13.96v61.13h15.63v-30.51c0-11.3,3.92-16.96,11.76-16.96,2.81,0,4.97,1,6.49,3,1.52,2,2.28,4.84,2.28,8.54v35.93h15.63v-39.79c0-7.15-1.77-12.69-5.31-16.61-3.54-3.92-8.54-5.88-15-5.88Z"/>
    <path class="cls-2" d="M316.52,25.18c-9.8,0-15.01,4.98-15.63,14.94h-2.17l-1.81-13.78h-23.88v13.38h10.61v34.37h-12.92v13.38h42.79v-13.38h-14.3v-12.92c0-6.8.94-12.05,2.83-15.74s4.73-5.54,8.54-5.54c2.92,0,5.05.79,6.37,2.36,1.33,1.58,1.99,4.17,1.99,7.79h15.57c0-8.04-1.55-14.19-4.64-18.46-3.1-4.27-7.55-6.4-13.35-6.4Z"/>
    <path class="cls-2" d="M395.59,73.51v-22.61c0-8.07-2.69-14.22-8.07-18.43-5.38-4.21-13.61-6.39-24.68-6.55l-13.32-.17-1.15,14.19,15.63.4c5.5.15,9.64.99,12.43,2.51,2.79,1.52,4.18,3.91,4.18,7.18v.18c-1.29-.28-2.56-.52-3.83-.7-2.44-.35-5.33-.52-8.68-.52-8.69,0-15.4,1.83-20.13,5.48-4.73,3.65-7.09,8.9-7.09,15.74,0,5.88,1.81,10.42,5.42,13.61,3.61,3.19,8.67,4.79,15.17,4.79,3.77,0,7.01-.59,9.72-1.76,2.71-1.17,4.82-2.94,6.31-5.31,1.23-1.94,1.99-4.28,2.29-7.01h1.4l.99,13.5,21.92-.58v-12.69l-8.48-1.27ZM373.79,73.57c-2.27,1.27-5.1,1.9-8.48,1.9-2.81,0-4.94-.55-6.4-1.64-1.46-1.1-2.19-2.68-2.19-4.76,0-4.61,4.04-6.92,12.11-6.92,2.15,0,4.21.05,6.17.14,1.67.08,3.53.35,5.57.78-.07,1.93-.61,3.82-1.67,5.65-1.13,1.96-2.84,3.58-5.1,4.84Z"/>
  </g>
</svg>